HIERARCHY
ROOT Hips
{
	OFFSET 0.000000 83.214638 0.000000
	CHANNELS 6 Xposition Yposition Zposition Xrotation Yrotation Zrotation
	JOINT Pelvis
	{
		OFFSET 0.000000 0.000000 0.000000
		CHANNELS 3 Xrotation Yrotation Zrotation
		JOINT LeftUpLeg
		{
			OFFSET 8.479700 -4.795502 -0.379100
			CHANNELS 3 Xrotation Yrotation Zrotation
			JOINT LeftLeg
			{
				OFFSET 0.024144 -32.555107 0.112900
				CHANNELS 3 Xrotation Yrotation Zrotation
				JOINT LeftFoot
				{
					OFFSET -0.024144 -32.638630 -3.012600
					CHANNELS 3 Xrotation Yrotation Zrotation
					JOINT LeftToeBase
					{
						OFFSET 0.970200 -13.225400 11.864200
						CHANNELS 3 Xrotation Yrotation Zrotation
						End Site
						{
							OFFSET 0.000000 12.319262 0.000000
						}
					}
					JOINT LFootTongue
					{
						OFFSET 1.142400 -1.059800 6.665200
						CHANNELS 3 Xrotation Yrotation Zrotation
						End Site
						{
							OFFSET 0.000000 12.319262 0.000000
						}
					}
				}
				JOINT LeftPantLeg
				{
					OFFSET 0.918482 -16.533964 -2.284700
					CHANNELS 3 Xrotation Yrotation Zrotation
					End Site
					{
						OFFSET 0.350399 24.744368 0.000000
					}
				}
			}
		}
		JOINT RightUpLeg
		{
			OFFSET -8.479700 -4.795502 -0.379100
			CHANNELS 3 Xrotation Yrotation Zrotation
			JOINT RightLeg
			{
				OFFSET -0.023144 -32.555092 0.112900
				CHANNELS 3 Xrotation Yrotation Zrotation
				JOINT RightFoot
				{
					OFFSET 0.023144 -32.638641 -3.012700
					CHANNELS 3 Xrotation Yrotation Zrotation
					JOINT RightToeBase
					{
						OFFSET -0.970200 -13.225400 11.864200
						CHANNELS 3 Xrotation Yrotation Zrotation
						End Site
						{
							OFFSET 0.000000 12.319244 0.000000
						}
					}
					JOINT RFootTongue
					{
						OFFSET -1.142200 -1.059800 6.665200
						CHANNELS 3 Xrotation Yrotation Zrotation
						End Site
						{
							OFFSET 0.000000 12.319243 0.000000
						}
					}
				}
				JOINT RightPantLeg
				{
					OFFSET -0.919482 -16.533978 -2.284800
					CHANNELS 3 Xrotation Yrotation Zrotation
					End Site
					{
						OFFSET -0.350400 24.744419 0.000000
					}
				}
			}
		}
	}
	JOINT Spine
	{
		OFFSET 0.000000 7.722000 1.166200
		CHANNELS 3 Xrotation Yrotation Zrotation
		JOINT Spine1
		{
			OFFSET 0.000000 12.024101 0.248800
			CHANNELS 3 Xrotation Yrotation Zrotation
			JOINT Spine2
			{
				OFFSET 0.000000 11.502998 -0.491200
				CHANNELS 3 Xrotation Yrotation Zrotation
				JOINT Neck
				{
					OFFSET 0.000000 18.430702 -3.123100
					CHANNELS 3 Xrotation Yrotation Zrotation
					JOINT Head
					{
						OFFSET 0.000000 9.051102 1.034000
						CHANNELS 3 Xrotation Yrotation Zrotation
						JOINT HairB
						{
							OFFSET 0.208400 24.786102 24.822300
							CHANNELS 3 Xrotation Yrotation Zrotation
							End Site
							{
								OFFSET 0.000000 32.263779 0.000000
							}
						}
						JOINT HairA
						{
							OFFSET -7.081100 24.428299 23.196600
							CHANNELS 3 Xrotation Yrotation Zrotation
							End Site
							{
								OFFSET 0.000000 32.263779 0.000000
							}
						}
						JOINT Hat
						{
							OFFSET 16.728800 15.048294 -15.439601
							CHANNELS 3 Xrotation Yrotation Zrotation
							End Site
							{
								OFFSET 0.000000 32.263779 0.000000
							}
						}
					}
				}
				JOINT LeftShoulder
				{
					OFFSET 6.197800 13.665199 -4.064700
					CHANNELS 3 Xrotation Yrotation Zrotation
					JOINT LeftArm
					{
						OFFSET 7.778100 -0.187103 -1.709300
						CHANNELS 3 Xrotation Yrotation Zrotation
						JOINT LeftForeArm
						{
							OFFSET 22.049376 0.000000 0.000000
							CHANNELS 3 Xrotation Yrotation Zrotation
							JOINT LeftHand
							{
								OFFSET 23.009392 0.000000 0.000000
								CHANNELS 3 Xrotation Yrotation Zrotation
								JOINT LeftHandThumb1
								{
									OFFSET 3.507191 -2.063065 3.133727
									CHANNELS 3 Xrotation Yrotation Zrotation
									JOINT LeftHandThumb2
									{
										OFFSET 3.101337 -1.790558 1.790558
										CHANNELS 3 Xrotation Yrotation Zrotation
										JOINT LeftHandThumb3
										{
											OFFSET 3.058640 -1.765907 1.765906
											CHANNELS 3 Xrotation Yrotation Zrotation
											End Site
											{
												OFFSET -0.415260 3.926476 -0.049563
											}
										}
									}
								}
								JOINT LeftHandIndex1
								{
									OFFSET 11.334419 -0.901459 3.706815
									CHANNELS 3 Xrotation Yrotation Zrotation
									JOINT LeftHandIndex2
									{
										OFFSET 3.283112 0.000000 0.000000
										CHANNELS 3 Xrotation Yrotation Zrotation
										JOINT LeftHandIndex3
										{
											OFFSET 3.323853 0.000000 0.000000
											CHANNELS 3 Xrotation Yrotation Zrotation
											End Site
											{
												OFFSET -1.135597 3.097809 0.402452
											}
										}
									}
								}
								JOINT LeftHandMiddle1
								{
									OFFSET 11.335861 0.000000 0.000000
									CHANNELS 3 Xrotation Yrotation Zrotation
									JOINT LeftHandMiddle2
									{
										OFFSET 3.410492 0.000000 0.000000
										CHANNELS 3 Xrotation Yrotation Zrotation
										JOINT LeftHandMiddle3
										{
											OFFSET 3.312172 0.000000 0.000000
											CHANNELS 3 Xrotation Yrotation Zrotation
											End Site
											{
												OFFSET -1.150200 3.080154 0.400270
											}
										}
									}
								}
								JOINT LeftHandRing1
								{
									OFFSET 11.514786 -0.013176 -3.003090
									CHANNELS 3 Xrotation Yrotation Zrotation
									JOINT LeftHandRing2
									{
										OFFSET 3.053307 0.000000 0.000000
										CHANNELS 3 Xrotation Yrotation Zrotation
										JOINT LeftHandRing3
										{
											OFFSET 3.295807 0.000000 0.000000
											CHANNELS 3 Xrotation Yrotation Zrotation
											End Site
											{
												OFFSET -1.281006 3.013344 0.375733
											}
										}
									}
								}
								JOINT LeftHandPinky1
								{
									OFFSET 10.518692 -0.960396 -5.730441
									CHANNELS 3 Xrotation Yrotation Zrotation
									JOINT LeftHandPinky2
									{
										OFFSET 2.861649 0.000000 0.000000
										CHANNELS 3 Xrotation Yrotation Zrotation
										JOINT LeftHandPinky3
										{
											OFFSET 2.863380 0.000000 0.000000
											CHANNELS 3 Xrotation Yrotation Zrotation
											End Site
											{
												OFFSET -0.843597 2.711159 0.369971
											}
										}
									}
								}
							}
							JOINT LSleeve
							{
								OFFSET 6.676277 -0.344902 -1.011730
								CHANNELS 3 Xrotation Yrotation Zrotation
								End Site
								{
									OFFSET 0.000000 14.885353 0.000000
								}
							}
						}
					}
				}
				JOINT RightShoulder
				{
					OFFSET -6.197800 13.665199 -4.064700
					CHANNELS 3 Xrotation Yrotation Zrotation
					JOINT RightArm
					{
						OFFSET -7.778100 -0.187103 -1.709300
						CHANNELS 3 Xrotation Yrotation Zrotation
						JOINT RightForeArm
						{
							OFFSET -22.049376 0.000000 0.000000
							CHANNELS 3 Xrotation Yrotation Zrotation
							JOINT RightHand
							{
								OFFSET -23.009392 0.000000 0.000000
								CHANNELS 3 Xrotation Yrotation Zrotation
								JOINT RightHandThumb1
								{
									OFFSET -3.507191 -2.063065 3.133727
									CHANNELS 3 Xrotation Yrotation Zrotation
									JOINT RightHandThumb2
									{
										OFFSET -3.101337 -1.790558 1.790558
										CHANNELS 3 Xrotation Yrotation Zrotation
										JOINT RightHandThumb3
										{
											OFFSET -3.058640 -1.765907 1.765906
											CHANNELS 3 Xrotation Yrotation Zrotation
											End Site
											{
												OFFSET 0.415260 3.926476 -0.049563
											}
										}
									}
								}
								JOINT RightHandIndex1
								{
									OFFSET -11.334419 -0.901459 3.706815
									CHANNELS 3 Xrotation Yrotation Zrotation
									JOINT RightHandIndex2
									{
										OFFSET -3.283112 0.000000 0.000000
										CHANNELS 3 Xrotation Yrotation Zrotation
										JOINT RightHandIndex3
										{
											OFFSET -3.323853 0.000000 0.000000
											CHANNELS 3 Xrotation Yrotation Zrotation
											End Site
											{
												OFFSET 1.135597 3.097809 0.402452
											}
										}
									}
								}
								JOINT RightHandMiddle1
								{
									OFFSET -11.335861 0.000000 0.000000
									CHANNELS 3 Xrotation Yrotation Zrotation
									JOINT RightHandMiddle2
									{
										OFFSET -3.410492 0.000000 0.000000
										CHANNELS 3 Xrotation Yrotation Zrotation
										JOINT RightHandMiddle3
										{
											OFFSET -3.312172 0.000000 0.000000
											CHANNELS 3 Xrotation Yrotation Zrotation
											End Site
											{
												OFFSET 1.150200 3.080154 0.400270
											}
										}
									}
								}
								JOINT RightHandRing1
								{
									OFFSET -11.514786 -0.013176 -3.003090
									CHANNELS 3 Xrotation Yrotation Zrotation
									JOINT RightHandRing2
									{
										OFFSET -3.053307 0.000000 0.000000
										CHANNELS 3 Xrotation Yrotation Zrotation
										JOINT RightHandRing3
										{
											OFFSET -3.295807 0.000000 0.000000
											CHANNELS 3 Xrotation Yrotation Zrotation
											End Site
											{
												OFFSET 1.281006 3.013344 0.375733
											}
										}
									}
								}
								JOINT RightHandPinky1
								{
									OFFSET -10.518692 -0.960396 -5.730441
									CHANNELS 3 Xrotation Yrotation Zrotation
									JOINT RightHandPinky2
									{
										OFFSET -2.861649 0.000000 0.000000
										CHANNELS 3 Xrotation Yrotation Zrotation
										JOINT RightHandPinky3
										{
											OFFSET -2.863380 0.000000 0.000000
											CHANNELS 3 Xrotation Yrotation Zrotation
											End Site
											{
												OFFSET 0.843597 2.711159 0.369971
											}
										}
									}
								}
							}
							JOINT RSleeve
							{
								OFFSET -6.676277 -0.344902 -1.011730
								CHANNELS 3 Xrotation Yrotation Zrotation
								End Site
								{
									OFFSET 0.000000 14.885353 0.000000
								}
							}
						}
					}
				}
				JOINT Backpack
				{
					OFFSET 0.000000 -2.471497 36.677502
					CHANNELS 3 Xrotation Yrotation Zrotation
					End Site
					{
						OFFSET 0.000000 20.427315 0.000000
					}
				}
				JOINT Hood
				{
					OFFSET 0.000000 18.754097 -10.431000
					CHANNELS 3 Xrotation Yrotation Zrotation
					JOINT Hood1
					{
						OFFSET 0.000000 -5.011002 -7.685901
						CHANNELS 3 Xrotation Yrotation Zrotation
						End Site
						{
							OFFSET 0.000000 9.175140 0.000000
						}
					}
				}
				JOINT LHoodieString
				{
					OFFSET 5.250500 16.397697 3.089900
					CHANNELS 3 Xrotation Yrotation Zrotation
					JOINT LHoodieString1
					{
						OFFSET 0.257700 -6.364304 3.694600
						CHANNELS 3 Xrotation Yrotation Zrotation
						JOINT LHoodieString2
						{
							OFFSET 0.000000 -9.643799 2.679100
							CHANNELS 3 Xrotation Yrotation Zrotation
							End Site
							{
								OFFSET 0.000000 10.009018 0.000000
							}
						}
					}
				}
				JOINT RHoodieString
				{
					OFFSET -5.250500 16.397697 3.089900
					CHANNELS 3 Xrotation Yrotation Zrotation
					JOINT RHoodieString1
					{
						OFFSET -0.257700 -6.364304 3.694600
						CHANNELS 3 Xrotation Yrotation Zrotation
						JOINT RHoodieString2
						{
							OFFSET 0.000000 -9.643799 2.679100
							CHANNELS 3 Xrotation Yrotation Zrotation
							End Site
							{
								OFFSET 0.000000 10.009018 0.000000
							}
						}
					}
				}
			}
			JOINT LBackpack_Strap
			{
				OFFSET 15.223200 -7.719803 -6.610900
				CHANNELS 3 Xrotation Yrotation Zrotation
				End Site
				{
					OFFSET 0.000000 16.040596 0.000000
				}
			}
			JOINT RBackpack_Strap
			{
				OFFSET -15.223000 -7.719803 -6.610900
				CHANNELS 3 Xrotation Yrotation Zrotation
				End Site
				{
					OFFSET 0.000000 16.040596 0.000000
				}
			}
		}
	}
	JOINT BoyFacialAnim_Joint
	{
		OFFSET 1.000000 -82.208099 -1.550900
		CHANNELS 3 Xrotation Yrotation Zrotation
		End Site
		{
			OFFSET 0.000000 30.012791 0.000000
		}
	}
}
MOTION
Frames: 4
Frame Time: 0.033333
-0.190800 80.158409 0.328174 -4.070067 -41.362468 0.509177 0.000000 0.000001 0.000000 -23.906292 39.745612 18.890010 24.742389 6.709917 -0.552490 -1.709648 0.962990 -2.817718 -0.000000 0.000000 -0.000000 -0.000000 0.000000 0.000000 0.000000 -0.000000 -0.000000 -2.664216 4.792828 -12.232463 24.946337 0.673959 0.963215 -16.181831 -18.311110 8.775319 0.000000 0.000002 0.000000 0.000000 0.000002 0.000000 -0.000000 -0.000001 0.000001 2.924791 -0.162145 -0.479265 5.848339 -0.390389 -0.876004 5.848346 -0.390397 -0.876004 -0.883997 26.118215 -5.085117 -12.133238 13.409295 0.401836 0.000000 -0.000000 -0.000000 0.000000 -0.000000 -0.000000 0.000000 -0.000000 -0.000000 -18.935199 7.366267 -4.623253 -4.189717 -19.755622 -74.317328 -22.453149 -68.272577 -27.042462 -100.597922 -26.404449 17.629840 3.592078 4.185671 -5.133822 1.252890 4.302573 1.889368 0.000001 -0.000002 0.000002 7.554904 5.560412 -33.410376 -14.917832 -6.767420 -80.641913 -0.000005 0.000001 -0.000003 -0.349191 -1.566793 -62.979221 -6.177650 -6.585496 -60.286207 0.000000 -0.000001 -0.000000 -5.286464 4.624236 -73.484714 0.757939 -3.521223 -58.282865 -0.000000 0.000000 -0.000004 -16.248825 1.424879 -86.150583 2.608792 -7.577978 -55.784730 0.000002 0.000001 -0.000000 -0.000000 -0.000000 0.000003 14.829374 0.116002 -0.444134 3.392382 38.346755 41.241632 -3.479673 115.438038 -0.033055 -33.753053 -20.046675 5.024216 15.407469 -4.518713 17.010977 11.550395 4.015409 -20.411402 0.000001 0.000001 -0.000000 1.857047 -0.976101 4.781782 -1.775908 -0.095300 22.317047 -0.000003 -0.000000 0.000005 3.631170 5.779699 48.858805 -9.397600 -0.919674 110.759789 0.000000 0.000001 -0.000002 -8.676853 -5.659701 54.892294 -4.714171 8.864039 96.803773 -0.000001 -0.000003 0.000005 -12.562962 0.077600 69.885300 -3.484587 14.093088 79.770572 0.000001 -0.000000 -0.000002 0.000000 -0.000000 -0.000001 -0.000000 0.000002 -0.000000 -0.000000 0.000002 -0.000000 -0.000000 0.000002 -0.000000 -0.000000 0.000002 -0.000000 -0.000000 0.000002 -0.000000 -0.000001 0.000000 -0.000000 -0.000000 0.000002 -0.000000 -0.000000 0.000002 -0.000000 -0.000001 0.000000 -0.000000 0.000000 0.000003 -0.000000 0.000000 0.000003 -0.000000 0.000000 0.000001 0.000000 
-0.245300 80.158043 0.356588 -4.047263 -41.331076 0.564730 0.000000 -0.000001 -0.000000 -23.969027 39.804447 18.954487 24.863465 6.697973 -0.555834 -1.785193 0.862517 -2.856334 0.000000 -0.000000 0.000000 0.000000 -0.000000 0.000000 -0.000000 -0.000001 -0.000000 -2.618366 4.771364 -12.254693 24.933331 0.674148 0.962770 -16.201294 -18.316351 8.763087 0.000000 0.000002 -0.000000 0.000000 0.000002 -0.000000 0.000001 0.000002 0.000000 2.933690 -0.169268 -0.485631 5.866069 -0.405217 -0.888731 5.866072 -0.405218 -0.888731 -0.935007 26.123464 -5.065969 -12.172267 13.452362 0.378195 -0.000000 0.000000 -0.000000 -0.000000 0.000000 -0.000000 -0.000000 0.000000 -0.000000 -18.926210 7.328017 -4.618772 -4.407030 -20.233966 -74.043547 -22.357193 -67.805310 -27.047407 -101.319190 -26.661391 17.028976 3.438254 4.144979 -4.898961 1.251579 4.303043 1.890398 -0.000001 -0.000003 0.000002 7.734604 5.478816 -33.426751 -14.982384 -6.761610 -80.710406 0.000000 0.000001 -0.000003 -0.267630 -1.763120 -63.375310 -6.144173 -6.805875 -60.205467 0.000003 -0.000000 0.000000 -5.224772 4.517525 -73.782367 0.757201 -3.522622 -58.297031 0.000000 0.000000 -0.000002 -16.297800 1.413996 -86.703159 2.661605 -7.510716 -55.303823 -0.000002 0.000001 0.000002 0.000000 0.000001 0.000005 14.779664 0.050850 -0.587553 3.225741 38.398712 41.604298 -3.874482 115.361922 0.259891 -33.509523 -20.119835 5.127680 15.313817 -4.426903 17.074438 11.577002 3.929137 -20.441723 0.000001 0.000000 -0.000000 1.850968 -0.819817 4.916356 -1.776665 -0.100021 22.382590 -0.000001 0.000000 -0.000002 3.569447 6.037141 48.898041 -9.328998 -0.923214 110.836307 0.000001 -0.000000 -0.000000 -8.712604 -5.365772 54.860711 -4.666588 8.866237 96.734419 -0.000000 0.000001 0.000002 -12.624479 0.384823 69.645581 -3.450533 14.107185 79.815227 -0.000001 -0.000001 -0.000003 -0.000001 0.000000 0.000001 0.000000 0.000000 -0.000000 0.000000 0.000000 -0.000000 0.000000 0.000000 -0.000000 0.000000 0.000000 -0.000000 0.000000 0.000000 0.000000 0.000000 -0.000003 0.000000 0.000000 0.000000 -0.000000 0.000000 0.000000 0.000000 0.000000 -0.000003 0.000000 -0.000000 -0.000001 -0.000000 -0.000000 -0.000001 -0.000000 0.000000 -0.000001 -0.000000 
-0.304618 80.159607 0.388969 -4.031202 -41.291352 0.619623 0.000000 -0.000001 -0.000000 -23.973505 39.780985 18.959893 24.969355 6.686046 -0.558593 -1.853895 0.850615 -2.909514 0.000000 -0.000000 0.000000 0.000000 -0.000000 0.000000 -0.000000 -0.000000 0.000000 -2.559842 4.700690 -12.290881 24.902398 0.673118 0.961613 -16.214299 -18.285130 8.756142 -0.000000 0.000004 -0.000000 -0.000000 0.000004 -0.000000 0.000000 -0.000002 0.000000 2.949469 -0.179525 -0.495557 5.897520 -0.426374 -0.908194 5.897522 -0.426366 -0.908195 -1.014806 26.130002 -5.027447 -12.223418 13.508179 0.350092 -0.000000 0.000000 0.000000 -0.000000 0.000000 0.000000 -0.000000 0.000000 0.000000 -18.888041 7.302288 -4.616000 -4.676279 -20.573681 -73.859480 -22.292897 -67.362304 -27.099602 -101.870325 -26.824779 16.491271 3.271816 4.072682 -4.658279 1.250254 4.303505 1.891416 -0.000002 0.000002 0.000002 7.914261 5.397126 -33.442949 -15.046939 -6.755654 -80.778858 0.000001 0.000000 -0.000002 -0.188669 -1.960849 -63.771099 -6.110087 -7.026164 -60.124263 0.000000 0.000000 -0.000003 -5.164195 4.409936 -74.079883 0.756472 -3.524038 -58.311231 -0.000001 -0.000002 -0.000002 -16.347108 1.402747 -87.255701 2.713594 -7.442753 -54.823114 -0.000001 0.000001 -0.000000 0.000000 -0.000000 0.000001 14.717721 -0.018344 -0.707112 3.103952 38.480200 41.887805 -4.271482 115.291927 0.555357 -33.318499 -20.172154 5.187892 15.220122 -4.335226 17.138060 11.603637 3.842868 -20.472029 0.000000 -0.000000 0.000001 1.844165 -0.663543 5.050859 -1.777449 -0.104731 22.448173 -0.000001 0.000000 0.000002 3.507289 6.294418 48.936977 -9.260411 -0.926594 110.912881 -0.000000 0.000001 -0.000000 -8.748017 -5.071803 54.828582 -4.619044 8.868313 96.665038 -0.000002 0.000002 0.000003 -12.683450 0.692651 69.405466 -3.416520 14.121349 79.859958 0.000000 0.000002 0.000001 -0.000001 -0.000001 0.000000 0.000000 -0.000001 -0.000000 0.000000 -0.000001 -0.000000 0.000000 -0.000001 -0.000000 0.000000 -0.000001 -0.000000 0.000000 -0.000001 -0.000000 -0.000000 0.000001 -0.000000 0.000000 -0.000001 -0.000000 0.000000 -0.000001 -0.000000 -0.000000 0.000001 -0.000000 -0.000000 0.000001 -0.000000 -0.000000 0.000001 -0.000000 0.000000 -0.000001 -0.000000 
-0.364723 80.161766 0.425113 -4.019908 -41.238650 0.666507 0.000000 -0.000002 -0.000000 -23.946572 39.681797 18.928302 25.078332 6.673833 -0.561494 -1.924904 0.903121 -2.971504 -0.000000 0.000000 -0.000000 -0.000000 0.000000 0.000000 -0.000000 -0.000002 0.000000 -2.488768 4.582400 -12.331990 24.862788 0.671299 0.960124 -16.268005 -18.228417 8.742422 -0.000000 0.000001 0.000000 -0.000000 0.000001 0.000000 0.000000 -0.000001 0.000001 2.960651 -0.193384 -0.508963 5.919747 -0.455023 -0.934617 5.919743 -0.455036 -0.934614 -1.129190 26.122823 -4.963344 -12.320228 13.565693 0.334127 -0.000000 0.000000 -0.000000 -0.000000 0.000000 -0.000000 -0.000000 0.000000 -0.000000 -18.818078 7.306513 -4.624148 -5.043862 -20.697824 -73.845642 -22.169032 -66.888384 -27.100446 -102.156995 -26.842234 16.046657 3.093212 3.969815 -4.412292 1.248949 4.304001 1.892429 -0.000001 0.000002 0.000002 8.093870 5.315432 -33.459014 -15.111493 -6.749587 -80.847269 0.000002 -0.000001 -0.000004 -0.112337 -2.159859 -64.166663 -6.075383 -7.246392 -60.042588 -0.000001 -0.000000 0.000002 -5.104744 4.301520 -74.377324 0.755717 -3.525413 -58.325417 -0.000000 -0.000001 -0.000002 -16.396725 1.391275 -87.808284 2.764732 -7.374089 -54.342535 -0.000001 -0.000002 -0.000001 -0.000000 0.000001 -0.000001 14.645983 -0.093895 -0.796020 2.972667 38.600968 42.100962 -4.671492 115.167467 0.853999 -33.214609 -20.222925 5.261061 15.126381 -4.243623 17.201901 11.630225 3.756579 -20.502281 0.000000 0.000000 0.000001 1.836619 -0.507294 5.185354 -1.778195 -0.109437 22.513717 -0.000002 -0.000000 0.000002 3.444646 6.551475 48.975581 -9.191840 -0.929783 110.989481 0.000000 0.000001 0.000002 -8.783115 -4.777775 54.795947 -4.571487 8.870315 96.595698 -0.000001 0.000002 0.000006 -12.739868 1.000992 69.164927 -3.382485 14.135555 79.904669 -0.000005 -0.000003 0.000001 0.000001 -0.000000 0.000000 -0.000000 0.000005 -0.000001 -0.000000 0.000005 -0.000001 -0.000000 0.000005 -0.000001 -0.000000 0.000005 -0.000001 -0.000000 0.000005 -0.000001 -0.000001 0.000001 -0.000001 -0.000000 0.000005 -0.000001 -0.000000 0.000005 -0.000001 -0.000001 0.000001 -0.000001 0.000000 -0.000001 0.000000 0.000000 -0.000001 0.000000 0.000000 -0.000002 -0.000000 
